<?xml version="1.0" standalone="no"?>
<!DOCTYPE svg PUBLIC "-//W3C//DTD SVG 20010904//EN"
 "http://www.w3.org/TR/2001/REC-SVG-20010904/DTD/svg10.dtd">
<svg version="1.0" xmlns="http://www.w3.org/2000/svg"
 width="42.000000pt" height="55.000000pt" viewBox="0 0 42.000000 55.000000"
 preserveAspectRatio="xMidYMid meet">

<g transform="translate(0.000000,55.000000) scale(0.100000,-0.100000)"
fill="#000000" stroke="none">
<path d="M20 379 c0 -19 2 -21 10 -9 5 8 12 12 15 9 3 -4 14 -84 25 -179 10
-94 21 -175 24 -178 16 -16 17 22 2 174 -12 123 -14 169 -5 174 6 5 2 9 -13
12 -12 3 -31 9 -40 13 -14 6 -18 2 -18 -16z"/>
<path d="M360 356 c0 -18 -7 -95 -16 -170 -8 -75 -14 -144 -11 -153 2 -10 7 9
11 42 10 88 36 266 41 293 4 15 1 22 -10 22 -10 0 -15 -10 -15 -34z"/>
<path d="M305 372 c-5 -4 -10 -14 -10 -22 -1 -54 -17 -309 -22 -328 -4 -17 -2
-21 9 -17 12 5 18 40 27 143 7 75 15 158 18 185 5 45 0 55 -22 39z"/>
<path d="M126 288 c3 -46 9 -128 12 -182 5 -72 11 -101 21 -104 12 -4 13 7 8
64 -4 38 -7 122 -7 187 0 110 -1 117 -20 117 -19 0 -20 -5 -14 -82z"/>
<path d="M208 185 c2 -109 7 -185 12 -185 6 0 11 1 11 3 1 1 5 84 8 185 6 177
5 182 -14 182 -19 0 -20 -6 -17 -185z"/>
</g>
</svg>
